<svg version="1.1" viewBox="0.0 0.0 960.0 720.0" fill="none" stroke="none" stroke-linecap="square" stroke-miterlimit="10" xmlns:xlink="http://www.w3.org/1999/xlink" xmlns="http://www.w3.org/2000/svg"><clipPath id="p.0"><path d="m0 0l960.0 0l0 720.0l-960.0 0l0 -720.0z" clip-rule="nonzero"/></clipPath><g clip-path="url(#p.0)"><path fill="#000000" fill-opacity="0.0" d="m0 0l960.0 0l0 720.0l-960.0 0z" fill-rule="evenodd"/><path fill="#000000" d="m349.25986 197.68591l0 0c0 -24.069077 19.51184 -43.580933 43.580902 -43.580933l174.31848 0l0 0c11.55835 0 22.643372 4.5915527 30.816345 12.764557c8.173035 8.173019 12.764587 19.257996 12.764587 30.816376l0 266.50745c0 24.069061 -19.51184 43.580933 -43.580933 43.580933l-174.31848 0c-24.069061 0 -43.580902 -19.511871 -43.580902 -43.580933z" fill-rule="evenodd"/><path stroke="#000000" stroke-width="1.0" stroke-linejoin="round" stroke-linecap="butt" d="m349.25986 197.68591l0 0c0 -24.069077 19.51184 -43.580933 43.580902 -43.580933l174.31848 0l0 0c11.55835 0 22.643372 4.5915527 30.816345 12.764557c8.173035 8.173019 12.764587 19.257996 12.764587 30.816376l0 266.50745c0 24.069061 -19.51184 43.580933 -43.580933 43.580933l-174.31848 0c-24.069061 0 -43.580902 -19.511871 -43.580902 -43.580933z" fill-rule="evenodd"/></g></svg>